<mxfile host="app.diagrams.net" modified="2022-11-05T01:53:45.053Z" agent="5.0 (Windows NT 10.0; Win64; x64) AppleWebKit/537.36 (KHTML, like Gecko) Chrome/106.0.0.0 Safari/537.36" etag="9bl1cVtfXIS_8m7kLIzS" version="20.5.1" type="github">
  <diagram id="prtHgNgQTEPvFCAcTncT" name="Page-1">
    <mxGraphModel dx="1378" dy="706" grid="1" gridSize="10" guides="1" tooltips="1" connect="1" arrows="1" fold="1" page="1" pageScale="1" pageWidth="827" pageHeight="1169" math="0" shadow="0">
      <root>
        <mxCell id="0" />
        <mxCell id="1" parent="0" />
        <mxCell id="sZ4xlpR0LMzzhPZL-YYs-14" value="" style="rounded=1;whiteSpace=wrap;html=1;dashed=1;fillStyle=auto;" vertex="1" parent="1">
          <mxGeometry x="310" y="120" width="360" height="280" as="geometry" />
        </mxCell>
        <mxCell id="sZ4xlpR0LMzzhPZL-YYs-15" style="edgeStyle=orthogonalEdgeStyle;rounded=1;orthogonalLoop=1;jettySize=auto;html=1;shape=flexArrow;fillColor=#ffe6cc;strokeColor=#d79b00;" edge="1" parent="1" source="sZ4xlpR0LMzzhPZL-YYs-6" target="sZ4xlpR0LMzzhPZL-YYs-14">
          <mxGeometry relative="1" as="geometry" />
        </mxCell>
        <mxCell id="sZ4xlpR0LMzzhPZL-YYs-6" value="蜂窝网络意图" style="aspect=fixed;html=1;points=[];align=center;image;fontSize=12;image=img/lib/azure2/general/File.svg;" vertex="1" parent="1">
          <mxGeometry x="100" y="195.5" width="104.7" height="129" as="geometry" />
        </mxCell>
        <mxCell id="sZ4xlpR0LMzzhPZL-YYs-7" value="词法分析" style="shape=image;html=1;verticalAlign=top;verticalLabelPosition=bottom;labelBackgroundColor=#ffffff;imageAspect=0;aspect=fixed;image=https://cdn3.iconfinder.com/data/icons/essential-pack/32/38-File-128.png" vertex="1" parent="1">
          <mxGeometry x="336" y="141" width="79" height="79" as="geometry" />
        </mxCell>
        <mxCell id="sZ4xlpR0LMzzhPZL-YYs-9" value="语法分析" style="verticalLabelPosition=bottom;html=1;verticalAlign=top;align=center;strokeColor=none;fillColor=#00BEF2;shape=mxgraph.azure.sql_reporting;" vertex="1" parent="1">
          <mxGeometry x="461" y="141" width="58" height="80" as="geometry" />
        </mxCell>
        <mxCell id="sZ4xlpR0LMzzhPZL-YYs-12" value="类型检查" style="shape=image;html=1;verticalAlign=top;verticalLabelPosition=bottom;labelBackgroundColor=#ffffff;imageAspect=0;aspect=fixed;image=https://cdn0.iconfinder.com/data/icons/business-startup-10/50/8-128.png" vertex="1" parent="1">
          <mxGeometry x="445" y="280" width="90" height="90" as="geometry" />
        </mxCell>
        <mxCell id="sZ4xlpR0LMzzhPZL-YYs-13" value="抽象原语" style="aspect=fixed;html=1;points=[];align=center;image;fontSize=12;image=img/lib/azure2/integration/Event_Grid_Subscriptions.svg;" vertex="1" parent="1">
          <mxGeometry x="560" y="146.42" width="82.17" height="73.58" as="geometry" />
        </mxCell>
        <mxCell id="sZ4xlpR0LMzzhPZL-YYs-18" value="" style="endArrow=none;html=1;rounded=1;entryX=1;entryY=0.5;entryDx=0;entryDy=0;exitX=0;exitY=0.5;exitDx=0;exitDy=0;dashed=1;" edge="1" parent="1" source="sZ4xlpR0LMzzhPZL-YYs-14" target="sZ4xlpR0LMzzhPZL-YYs-14">
          <mxGeometry width="50" height="50" relative="1" as="geometry">
            <mxPoint x="370" y="370" as="sourcePoint" />
            <mxPoint x="420" y="320" as="targetPoint" />
          </mxGeometry>
        </mxCell>
      </root>
    </mxGraphModel>
  </diagram>
</mxfile>
